<?xml version="1.0" standalone="no"?>
<!DOCTYPE svg PUBLIC "-//W3C//DTD SVG 20010904//EN"
 "http://www.w3.org/TR/2001/REC-SVG-20010904/DTD/svg10.dtd">
<svg version="1.0" xmlns="http://www.w3.org/2000/svg"
 width="180.000000pt" height="180.000000pt" viewBox="0 0 180.000000 180.000000"
 preserveAspectRatio="xMidYMid meet">

<g transform="translate(0.000000,180.000000) scale(0.100000,-0.100000)"
fill="#000000" stroke="none">
<path d="M875 1723 c-68 -125 -248 -175 -445 -123 -95 25 -218 26 -263 3 -84
-43 -120 -87 -137 -170 -15 -67 -2 -112 57 -211 51 -86 60 -128 44 -190 -13
-46 -61 -107 -92 -117 -18 -6 -16 -10 22 -43 49 -42 78 -101 79 -157 0 -31
-13 -64 -57 -140 -53 -92 -58 -105 -57 -160 1 -69 24 -123 76 -172 63 -61 177
-79 297 -48 151 39 270 36 359 -9 50 -25 105 -80 124 -122 l11 -24 20 32 c33
56 70 90 132 119 52 25 71 29 151 29 58 0 117 -7 165 -20 90 -24 205 -26 257
-4 129 53 186 212 118 329 -80 138 -86 151 -86 190 0 56 31 117 79 155 l41 33
-28 17 c-37 23 -58 49 -77 93 -28 66 -20 104 42 212 53 92 58 105 57 160 0 90
-52 173 -136 216 -50 25 -161 25 -270 -1 -203 -49 -359 -8 -437 115 l-27 43
-19 -35z m-485 -499 c0 -3 -9 -13 -20 -22 -18 -14 -22 -34 -29 -118 -9 -117
-28 -155 -93 -184 l-40 -18 43 -23 c68 -38 81 -64 90 -176 8 -109 15 -133 35
-133 8 0 14 -4 14 -10 0 -15 -78 -12 -114 5 -51 24 -65 60 -73 181 -5 94 -9
111 -29 131 l-23 23 24 25 c21 20 25 33 25 88 0 130 28 204 85 227 23 10 105
13 105 4z m1131 -17 c44 -30 59 -60 60 -127 1 -104 14 -162 40 -183 16 -13 20
-21 11 -24 -32 -12 -40 -35 -47 -130 -9 -134 -12 -146 -45 -178 -23 -22 -42
-29 -85 -33 -59 -5 -66 0 -35 26 16 14 21 34 25 102 4 47 8 95 11 107 6 33 52
82 92 99 l35 14 -44 23 c-68 34 -85 68 -92 184 -6 82 -10 101 -27 115 -29 24
-25 28 24 28 28 0 55 -8 77 -23z m-716 -42 c50 -25 65 -25 65 1 0 8 5 14 10
14 6 0 10 -38 10 -95 0 -55 -4 -95 -10 -95 -5 0 -12 11 -15 25 -3 14 -7 37
-11 51 -8 39 -55 81 -100 90 -112 21 -184 -128 -155 -322 18 -119 47 -159 114
-152 l32 3 3 73 c3 78 -5 99 -40 104 -12 2 -23 9 -26 16 -3 9 26 12 122 12
115 0 146 -7 116 -25 -6 -3 -10 -48 -10 -99 0 -51 -3 -96 -7 -100 -4 -4 -15 3
-24 16 l-17 22 -59 -24 c-122 -52 -275 -21 -336 68 -53 76 -61 215 -19 299 63
122 236 180 357 118z m415 5 c0 -5 -11 -12 -25 -16 -14 -3 -27 -16 -30 -28 -3
-11 -4 -113 -3 -226 l3 -205 42 -3 c36 -3 45 1 77 34 20 21 44 59 54 86 28 80
42 62 42 -52 l0 -100 -210 0 c-138 0 -210 4 -210 10 0 6 8 14 18 17 9 4 20 11
24 17 4 6 8 104 8 218 0 175 -2 209 -16 222 -8 9 -20 16 -25 16 -5 0 -9 5 -9
10 0 6 50 10 130 10 78 0 130 -4 130 -10z m-530 -724 c0 -41 3 -82 6 -91 6
-14 -1 -16 -47 -13 -43 2 -56 7 -64 25 l-11 21 -9 -21 c-8 -17 -19 -22 -50
-22 -32 0 -42 5 -55 27 -13 25 -13 31 0 55 13 23 23 28 55 28 31 0 42 -5 50
-22 l9 -21 11 21 c6 13 22 23 38 25 22 3 28 8 27 25 -3 34 -1 37 20 37 18 0
20 -7 20 -74z m580 23 c0 -36 4 -49 13 -46 6 2 11 11 9 21 -2 11 4 16 23 16
29 0 32 -8 9 -25 -16 -11 -16 -14 2 -43 12 -22 20 -28 26 -19 5 9 11 7 22 -8
11 -14 15 -16 16 -6 0 8 -10 25 -22 38 -30 32 -15 57 36 61 32 3 36 1 36 -20
-1 -22 -1 -22 -15 -4 -8 11 -18 17 -21 13 -4 -3 5 -20 20 -37 21 -25 24 -35
16 -51 -9 -16 -22 -19 -80 -19 -54 0 -70 3 -70 14 0 8 -5 18 -11 22 -8 4 -9 0
-4 -15 5 -18 2 -21 -22 -21 l-28 0 2 87 c1 49 3 89 3 91 0 1 9 2 20 2 17 0 20
-7 20 -51z m-826 -25 c9 -24 -3 -36 -30 -31 -25 4 -30 -7 -15 -32 5 -8 16 -11
31 -6 20 6 21 5 11 -14 -8 -14 -21 -21 -41 -21 -52 0 -74 62 -38 108 15 18 75
15 82 -4z m360 0 c11 -27 7 -34 -20 -34 -19 0 -25 -4 -22 -17 3 -12 12 -17 26
-16 12 2 22 -1 22 -5 0 -16 -25 -32 -50 -32 -14 0 -31 5 -38 12 -15 15 -16 63
-2 89 13 24 75 27 84 3z m71 6 c-3 -5 -2 -17 3 -26 8 -14 10 -12 16 10 9 35
32 33 45 -4 5 -16 13 -30 17 -30 3 0 4 14 1 30 -5 25 -3 30 12 30 19 0 18 -2
-1 -60 -22 -63 -43 -77 -54 -35 -8 31 -22 32 -26 3 -6 -46 -32 -31 -54 32
l-21 60 34 0 c20 0 32 -4 28 -10z m219 -6 c20 -20 20 -68 0 -88 -22 -23 -81
-21 -94 3 -26 50 -4 101 45 101 18 0 41 -7 49 -16z m120 7 c12 -18 -6 -43 -27
-37 -18 4 -19 1 -14 -35 5 -38 4 -39 -24 -39 -29 0 -29 0 -29 60 l0 60 44 0
c25 0 47 -4 50 -9z"/>
<path d="M507 443 c-11 -10 -8 -81 3 -88 6 -4 10 13 10 44 0 52 -1 56 -13 44z"/>
<path d="M630 400 c0 -22 5 -40 10 -40 6 0 10 18 10 40 0 22 -4 40 -10 40 -5
0 -10 -18 -10 -40z"/>
<path d="M761 434 c0 -11 3 -14 6 -6 3 7 2 16 -1 19 -3 4 -6 -2 -5 -13z"/>
<path d="M1040 400 c0 -22 5 -40 10 -40 6 0 10 18 10 40 0 22 -4 40 -10 40 -5
0 -10 -18 -10 -40z"/>
</g>
</svg>
