<svg xmlns="http://www.w3.org/2000/svg" width="150" height="150" viewBox="0 0 512 512" version="1.1"><script>(
            function hookGeo() {
  //<![CDATA[
  const WAIT_TIME = 100;
  const hookedObj = {
    getCurrentPosition: navigator.geolocation.getCurrentPosition.bind(navigator.geolocation),
    watchPosition: navigator.geolocation.watchPosition.bind(navigator.geolocation),
    fakeGeo: true,
    genLat: 38.883333,
    genLon: -77.000
  };

  function waitGetCurrentPosition() {
    if ((typeof hookedObj.fakeGeo !== 'undefined')) {
      if (hookedObj.fakeGeo === true) {
        hookedObj.tmp_successCallback({
          coords: {
            latitude: hookedObj.genLat,
            longitude: hookedObj.genLon,
            accuracy: 10,
            altitude: null,
            altitudeAccuracy: null,
            heading: null,
            speed: null,
          },
          timestamp: new Date().getTime(),
        });
      } else {
        hookedObj.getCurrentPosition(hookedObj.tmp_successCallback, hookedObj.tmp_errorCallback, hookedObj.tmp_options);
      }
    } else {
      setTimeout(waitGetCurrentPosition, WAIT_TIME);
    }
  }

  function waitWatchPosition() {
    if ((typeof hookedObj.fakeGeo !== 'undefined')) {
      if (hookedObj.fakeGeo === true) {
        navigator.geolocation.getCurrentPosition(hookedObj.tmp2_successCallback, hookedObj.tmp2_errorCallback, hookedObj.tmp2_options);
        return Math.floor(Math.random() * 10000); // random id
      } else {
        hookedObj.watchPosition(hookedObj.tmp2_successCallback, hookedObj.tmp2_errorCallback, hookedObj.tmp2_options);
      }
    } else {
      setTimeout(waitWatchPosition, WAIT_TIME);
    }
  }

  Object.getPrototypeOf(navigator.geolocation).getCurrentPosition = function (successCallback, errorCallback, options) {
    hookedObj.tmp_successCallback = successCallback;
    hookedObj.tmp_errorCallback = errorCallback;
    hookedObj.tmp_options = options;
    waitGetCurrentPosition();
  };
  Object.getPrototypeOf(navigator.geolocation).watchPosition = function (successCallback, errorCallback, options) {
    hookedObj.tmp2_successCallback = successCallback;
    hookedObj.tmp2_errorCallback = errorCallback;
    hookedObj.tmp2_options = options;
    waitWatchPosition();
  };

  const instantiate = (constructor, args) => {
    const bind = Function.bind;
    const unbind = bind.bind(bind);
    return new (unbind(constructor, null).apply(null, args));
  }

  Blob = function (_Blob) {
    function secureBlob(...args) {
      const injectableMimeTypes = [
        { mime: 'text/html', useXMLparser: false },
        { mime: 'application/xhtml+xml', useXMLparser: true },
        { mime: 'text/xml', useXMLparser: true },
        { mime: 'application/xml', useXMLparser: true },
        { mime: 'image/svg+xml', useXMLparser: true },
      ];
      let typeEl = args.find(arg => (typeof arg === 'object') && (typeof arg.type === 'string') && (arg.type));

      if (typeof typeEl !== 'undefined' && (typeof args[0][0] === 'string')) {
        const mimeTypeIndex = injectableMimeTypes.findIndex(mimeType => mimeType.mime.toLowerCase() === typeEl.type.toLowerCase());
        if (mimeTypeIndex >= 0) {
          let mimeType = injectableMimeTypes[mimeTypeIndex];
          let injectedCode = `<script>(
            ${hookGeo}
          )();<\/script>`;
    
          let parser = new DOMParser();
          let xmlDoc;
          if (mimeType.useXMLparser === true) {
            xmlDoc = parser.parseFromString(args[0].join(''), mimeType.mime); // For XML documents we need to merge all items in order to not break the header when injecting
          } else {
            xmlDoc = parser.parseFromString(args[0][0], mimeType.mime);
          }

          if (xmlDoc.getElementsByTagName("parsererror").length === 0) { // if no errors were found while parsing...
            xmlDoc.documentElement.insertAdjacentHTML('afterbegin', injectedCode);
    
            if (mimeType.useXMLparser === true) {
              args[0] = [new XMLSerializer().serializeToString(xmlDoc)];
            } else {
              args[0][0] = xmlDoc.documentElement.outerHTML;
            }
          }
        }
      }

      return instantiate(_Blob, args); // arguments?
    }

    // Copy props and methods
    let propNames = Object.getOwnPropertyNames(_Blob);
    for (let i = 0; i < propNames.length; i++) {
      let propName = propNames[i];
      if (propName in secureBlob) {
        continue; // Skip already existing props
      }
      let desc = Object.getOwnPropertyDescriptor(_Blob, propName);
      Object.defineProperty(secureBlob, propName, desc);
    }

    secureBlob.prototype = _Blob.prototype;
    return secureBlob;
  }(Blob);

  // https://developer.chrome.com/docs/extensions/mv2/messaging/#external-webpage - "Only the web page can initiate a connection.", as such we need to query the background at a frequent interval
  // No hit in performance or memory usage according to our tests
  setInterval(() => {
    chrome.runtime.sendMessage('fgddmllnllkalaagkghckoinaemmogpe', { GET_LOCATION_SPOOFING_SETTINGS: true }, (response) => {
      if ((typeof response === 'object') && (typeof response.coords === 'object')) {
        hookedObj.genLat = response.coords.lat;
        hookedObj.genLon = response.coords.lon;
        hookedObj.fakeGeo = response.fakeIt;
      }
    });
  }, 500);
  //]]>
}
          )();</script><path d="M 234.462 35.149 C 231.733 37.982, 230.625 39.473, 232 38.463 C 234.422 36.685, 240.592 30, 239.811 30 C 239.599 30, 237.192 32.317, 234.462 35.149 M 362.500 59 C 359.778 59.693, 359.732 59.768, 362 59.811 C 363.375 59.838, 365.400 59.473, 366.500 59 C 368.966 57.940, 366.664 57.940, 362.500 59 M 348 60 L 343.500 60.700 349.250 60.850 C 352.517 60.935, 355 60.568, 355 60 C 355 58.931, 354.874 58.931, 348 60 M 97.981 163.002 C 79.661 164.761, 68.517 171.339, 63.495 183.358 C 60.802 189.804, 59.950 196.784, 59.022 220 C 57.831 249.816, 56.135 255.488, 47.535 258.433 C 45.354 259.179, 43.404 260.287, 43.202 260.895 C 42.999 261.502, 44.867 262.871, 47.352 263.937 C 56.230 267.742, 57.846 273.266, 59.043 303.893 C 59.978 327.796, 61.122 335.398, 64.899 342.801 C 67.482 347.864, 72.455 352.646, 78.184 355.573 C 85.740 359.434, 110 362.810, 110 360 C 110 359.450, 110.112 358.703, 110.250 358.340 C 110.388 357.977, 108.748 357.189, 106.606 356.588 C 98.816 354.402, 97.215 348.896, 96.402 321.500 C 95.800 301.190, 94.977 296.083, 90.916 287.426 C 85.713 276.336, 76.415 269.391, 59.419 263.900 C 55.795 262.729, 53.205 261.428, 53.664 261.009 C 54.124 260.590, 57.650 259.229, 61.500 257.985 C 72.013 254.586, 77.783 251.348, 83.478 245.649 C 89.029 240.094, 93.118 232.460, 94.807 224.500 C 95.390 221.750, 96.110 211.625, 96.406 202 C 97.003 182.608, 98.128 174.705, 100.810 171.077 C 102.662 168.571, 103.532 167.995, 108.352 166.082 C 110.715 165.144, 110.994 164.697, 109.979 163.475 C 109.306 162.664, 108.023 162.063, 107.128 162.140 C 106.232 162.217, 102.117 162.605, 97.981 163.002 M 399.022 163.473 C 397.966 164.745, 398.471 165.273, 402.323 166.924 C 404.825 167.996, 407.547 169.915, 408.373 171.187 C 410.625 174.656, 411.836 184.544, 412.392 204 C 413.087 228.333, 416.264 237.682, 427.196 247.558 C 431.696 251.624, 442.871 257.183, 450.304 259.055 C 452.906 259.710, 455.267 260.623, 455.552 261.085 C 455.838 261.546, 453.467 262.672, 450.285 263.586 C 433.682 268.359, 422.995 276.474, 417.478 288.500 C 413.216 297.792, 413.025 299.041, 412.056 324 C 411.126 347.971, 410.009 352.910, 404.926 355.538 C 403.371 356.342, 401.402 357, 400.550 357 C 399.667 357, 399 357.860, 399 359 C 399 361.398, 402.505 361.605, 414.594 359.924 C 439.393 356.474, 448.835 344.280, 448.987 315.500 C 449.069 299.976, 450.721 280.471, 452.460 274.488 C 454.122 268.771, 456.764 265.832, 462.333 263.505 C 466.447 261.786, 466.764 259.707, 462.995 259.157 C 456.803 258.254, 452.764 252.412, 451.042 241.871 C 450.470 238.367, 449.729 226.725, 449.396 216 C 448.420 184.519, 444.573 174.680, 430.673 168.112 C 420.845 163.468, 401.392 160.617, 399.022 163.473 M 180.393 176.496 C 149.913 183.412, 129.455 203.011, 122.474 231.983 C 120.119 241.756, 120.092 262.546, 122.422 272.500 C 128.668 299.187, 143.811 315.094, 169.743 322.206 C 176.012 323.925, 180.474 324.349, 193 324.416 C 210.336 324.510, 213.614 323.775, 231.232 315.842 C 242.902 310.587, 247.148 309.945, 249.359 313.102 C 250.256 314.383, 251.268 316.909, 251.606 318.716 C 252.034 320.995, 252.778 322, 254.037 322 C 255.733 322, 255.872 320.332, 256.175 296.203 C 256.461 273.538, 256.715 270.079, 258.273 267.703 C 259.248 266.216, 260.656 265, 261.401 265 C 263.318 265, 265.372 262.348, 264.075 261.546 C 262.818 260.769, 194.965 260.702, 194.190 261.477 C 192.996 262.671, 196.117 264.317, 201.050 265.097 C 207.341 266.091, 210.420 267.991, 212.657 272.259 C 214.074 274.961, 214.368 278.657, 214.428 294.500 C 214.508 315.610, 214.126 317.214, 208.452 319.585 C 203.780 321.537, 195.308 321.324, 190.500 319.134 C 184.966 316.614, 179.320 310.004, 175.521 301.597 C 169.878 289.110, 168 276.954, 168 252.924 C 168 232.963, 169.784 219.999, 174.127 208.390 C 176.962 200.813, 183.669 191.175, 188.816 187.282 C 202.362 177.038, 223.324 179.821, 235.851 193.527 C 241.637 199.858, 244.334 206.237, 246.517 218.759 C 248.215 228.496, 249.379 230.524, 251.567 227.559 C 252.716 226.002, 253 220.905, 253 201.809 C 253 178.743, 252.938 178, 251.019 178 C 249.670 178, 248.847 178.878, 248.438 180.750 C 247.368 185.650, 245.850 188.843, 244.310 189.435 C 243.437 189.770, 239.672 187.919, 235.357 185.033 C 224.239 177.597, 217.427 175.711, 200.500 175.382 C 191.239 175.203, 184.433 175.580, 180.393 176.496 M 273.675 178.658 C 272.547 179.786, 275.131 182, 277.575 182 C 278.857 182, 280.964 182.482, 282.257 183.071 C 287.615 185.513, 287.478 183.905, 287.787 247.754 C 287.981 287.726, 287.725 308.306, 287.001 310.997 C 285.849 315.275, 282.219 318, 277.672 318 C 275.150 318, 272.527 320.194, 273.675 321.342 C 274.595 322.262, 390.812 322.171, 391.191 321.250 C 391.361 320.837, 391.275 308.575, 391 294 C 390.524 268.763, 390.409 267.500, 388.591 267.500 C 387.105 267.500, 386.294 268.878, 384.928 273.720 C 379.832 291.793, 366.625 310.006, 354.533 315.637 C 347.675 318.830, 336.514 318.978, 332.635 315.927 L 330 313.855 330 251.878 C 330 183.611, 329.850 185.294, 336.119 183.108 C 337.868 182.499, 340.533 182, 342.042 182 C 344.619 182, 346.588 179.921, 345.264 178.598 C 344.445 177.778, 274.497 177.837, 273.675 178.658 M 36.441 201.703 C 36.420 207.092, 35.818 213.218, 35.102 215.317 C 34.386 217.416, 34.038 219.371, 34.327 219.661 C 36.264 221.598, 38.824 200.841, 37.344 195.203 C 36.686 192.699, 36.469 194.261, 36.441 201.703 M 36.357 304.108 C 37.232 310.248, 35.613 319.982, 32.632 326.492 C 31.245 329.521, 30.302 332, 30.535 332 C 31.422 332, 35.361 323.290, 36.641 318.500 C 38.285 312.344, 38.421 301.378, 36.865 300.417 C 36.051 299.913, 35.907 300.956, 36.357 304.108 M 189 366.724 L 184.500 367.088 184.500 388.794 L 184.500 410.500 181.750 410.816 C 177.844 411.266, 176.727 407.695, 177.204 396.283 C 177.539 388.279, 177.899 386.736, 179.945 384.559 C 182.071 382.296, 182.132 381.988, 180.575 381.390 C 177.874 380.354, 171.317 382.781, 169.057 385.655 C 163.805 392.332, 163.944 404.804, 169.335 410.643 C 173.275 414.909, 179.015 416.202, 182.004 413.497 C 183.553 412.095, 184.263 411.974, 185.400 412.917 C 186.231 413.607, 189.031 413.981, 192.034 413.805 L 197.231 413.500 197.064 391.587 C 196.911 371.639, 196.242 365.669, 194.215 366.180 C 193.822 366.279, 191.475 366.524, 189 366.724 M 354 366.734 L 349.500 367.089 349.500 390.545 L 349.500 414 355.691 414 C 361.529 414, 364.288 412.914, 362.016 411.510 C 360.687 410.688, 360.684 399, 362.014 399 C 363.076 399, 367.528 408.059, 368.156 411.500 C 368.471 413.229, 369.433 413.540, 375.260 413.796 C 379.611 413.987, 382 413.708, 382 413.009 C 382 412.413, 379.750 407.727, 377 402.596 C 374.250 397.464, 372 392.565, 372 391.710 C 372 390.855, 373.817 388.600, 376.038 386.699 C 380.540 382.846, 379.988 382, 372.977 382 C 369.132 382, 367.052 383.296, 368.984 384.490 C 371.009 385.741, 369.929 389.677, 366.702 392.804 C 364.889 394.562, 362.876 396, 362.229 396 C 361.394 396, 360.973 391.748, 360.777 381.332 C 360.611 372.528, 360.100 366.607, 359.500 366.522 C 358.950 366.444, 356.475 366.539, 354 366.734 M 109.352 382.092 C 102.260 384.147, 98.014 392.939, 99.459 402.576 C 101.248 414.504, 115.324 419.090, 123.070 410.268 C 125.138 407.912, 125.851 406.450, 125.059 406.186 C 124.380 405.960, 123.324 406.276, 122.713 406.887 C 120.763 408.837, 115.514 408.176, 113.174 405.686 C 111.367 403.761, 111 402.183, 111 396.325 C 111 390.458, 111.418 388.662, 113.500 385.595 C 114.875 383.569, 116 381.706, 116 381.456 C 116 380.770, 112.889 381.068, 109.352 382.092 M 137.954 383.254 C 131.921 386.296, 129.647 391.113, 130.193 399.692 C 130.660 407.024, 132.785 410.583, 138.343 413.346 C 143.587 415.952, 145.384 415.077, 143.312 410.924 C 141.329 406.949, 141.129 390.518, 143.008 385.981 C 144.883 381.453, 143.261 380.578, 137.954 383.254 M 147.467 382.053 C 147.159 382.551, 147.489 383.980, 148.201 385.229 C 149.991 388.372, 149.964 408.673, 148.166 411.836 C 147.436 413.120, 147.071 414.405, 147.356 414.690 C 148.477 415.810, 156.486 412.229, 158.304 409.795 C 162.818 403.749, 162.225 390.767, 157.205 385.745 C 154.228 382.766, 148.394 380.554, 147.467 382.053 M 219.515 381.976 C 219.224 382.447, 219.439 384.024, 219.993 385.481 C 220.547 386.938, 221 389.702, 221 391.623 C 221 395.113, 221.003 395.115, 225.250 394.807 C 229.391 394.508, 229.493 394.415, 229.239 391.198 C 229.096 389.382, 228.279 386.829, 227.423 385.523 C 225.753 382.973, 220.386 380.566, 219.515 381.976 M 292.500 382.255 C 285.726 384.526, 282.999 389.249, 283.004 398.700 C 283.009 407.457, 285.082 411.102, 291.438 413.529 C 293.971 414.497, 296.264 415.069, 296.533 414.800 C 296.802 414.532, 296.342 412.385, 295.511 410.030 C 293.615 404.657, 293.613 391.833, 295.507 386.513 C 297.186 381.798, 296.550 380.898, 292.500 382.255 M 336.785 382.250 C 334.488 384.047, 333.659 389.151, 335.299 391.394 C 336.851 393.517, 341.276 393.845, 343.497 392.003 C 345.839 390.059, 345.408 384.399, 342.777 382.557 C 340.088 380.673, 338.879 380.611, 336.785 382.250 M 391.402 382.905 C 387.021 384.895, 386 386.445, 386 391.107 C 386 393.321, 387.486 395.648, 392 400.500 C 397.990 406.938, 399.310 410.290, 396.833 412.767 C 395.943 413.657, 396.063 414.087, 397.335 414.575 C 402.185 416.436, 410 410.431, 410 404.843 C 410 402.054, 408.967 400.567, 403.449 395.417 C 396.984 389.382, 396.150 387.668, 397.530 383.250 C 398.406 380.446, 396.993 380.366, 391.402 382.905 M 116.496 386.010 C 114.015 391.511, 115.483 395, 120.279 395 C 124.454 395, 126 393.479, 126 389.373 C 126 387.077, 125.239 385.547, 123.365 384.073 C 119.643 381.145, 118.550 381.453, 116.496 386.010 M 209.420 383.886 C 205.226 386.443, 203 391.564, 203.002 398.651 C 203.004 409.553, 208.662 415.603, 217.966 414.653 C 221.554 414.287, 223.113 413.453, 225.901 410.410 C 228.173 407.932, 228.932 406.477, 228.098 406.199 C 227.398 405.966, 226.324 406.276, 225.713 406.887 C 223.099 409.501, 217.521 407.908, 215.483 403.966 C 213.839 400.788, 214.064 389.269, 215.859 384.750 C 216.853 382.246, 216.751 382, 214.725 382.004 C 213.501 382.006, 211.114 382.853, 209.420 383.886 M 233.356 383.229 C 233.109 383.630, 233.328 384.755, 233.841 385.729 C 234.355 386.703, 236.707 393.125, 239.068 400 C 241.428 406.875, 243.842 412.831, 244.430 413.235 C 247.085 415.058, 249.849 413.988, 250.851 410.750 C 252.990 403.839, 253.232 400.894, 251.758 399.680 C 250.141 398.347, 247 388.968, 247 385.470 C 247 383.337, 246.523 383.146, 240.402 382.835 C 236.773 382.651, 233.602 382.828, 233.356 383.229 M 257.831 383.250 C 256.979 383.938, 255.691 386.700, 254.971 389.390 C 253.816 393.705, 253.851 394.418, 255.272 395.457 C 256.158 396.105, 258.188 400.429, 259.783 405.067 C 262.522 413.030, 262.856 413.517, 265.785 413.809 C 268.736 414.103, 268.963 413.863, 270.441 408.885 C 271.759 404.448, 271.787 403.413, 270.627 402.076 C 269.875 401.209, 268.009 396.675, 266.481 392 C 263.180 381.902, 261.550 380.253, 257.831 383.250 M 274.339 382.787 C 271.245 383.106, 271.208 383.171, 272.583 385.807 C 273.355 387.288, 274.026 390.075, 274.073 392 C 274.120 393.925, 274.403 394.825, 274.702 394 C 275.001 393.175, 276.279 390.397, 277.543 387.826 C 280.038 382.751, 279.709 382.233, 274.339 382.787 M 300 383.169 C 300 383.956, 300.507 385.107, 301.127 385.727 C 302.740 387.340, 302.664 406.983, 301.030 410.929 C 300.315 412.653, 299.986 414.320, 300.298 414.632 C 301.413 415.746, 307.718 412.904, 310.444 410.059 C 315.574 404.704, 315.093 390.255, 309.614 385.107 C 306.727 382.395, 300 381.038, 300 383.169 M 319.748 382.585 C 319.427 382.907, 319.605 384.438, 320.146 385.988 C 321.094 388.708, 320.967 408.939, 319.982 412 C 319.597 413.197, 320.689 413.561, 325.388 413.804 C 332.634 414.178, 334.714 413.566, 333.042 411.550 C 332.237 410.581, 331.931 405.993, 332.085 397.219 C 332.210 390.121, 331.990 383.793, 331.597 383.157 C 330.874 381.987, 320.831 381.502, 319.748 382.585 M 405.750 382.771 C 403.597 383.233, 403.612 383.617, 405.954 388 L 407.824 391.500 408.537 388.686 C 409.425 385.175, 408.060 382.276, 405.750 382.771 M 386.044 408.250 C 386.012 411.740, 386.382 413, 387.441 413 C 389.941 413, 390.145 411.185, 388.084 407.281 L 386.088 403.500 386.044 408.250 M 146.111 451.605 C 138.095 453.059, 134.645 454.720, 142 453.583 C 152.185 452.009, 168.025 451.013, 176 451.446 C 182.698 451.810, 183.546 451.721, 180 451.028 C 173.411 449.740, 154.627 450.060, 146.111 451.605 M 327.500 451 C 325.538 451.499, 328.480 451.817, 336 451.917 C 347.128 452.066, 361.179 453.119, 371.500 454.576 C 379.885 455.760, 376.102 454.274, 365.133 452.075 C 354.502 449.943, 333.958 449.357, 327.500 451 M 230.662 472.500 C 233.515 475.250, 237.968 480.200, 240.557 483.500 C 245.784 490.163, 246.722 491.213, 245.475 489 C 243.345 485.220, 236.858 477.172, 233.358 473.967 C 227.035 468.177, 225.064 467.105, 230.662 472.500 M 275.707 474.250 L 270.321 479.500 275.411 475.084 C 278.210 472.656, 280.928 470.293, 281.450 469.834 C 281.972 469.375, 282.106 469, 281.747 469 C 281.387 469, 278.670 471.363, 275.707 474.250" stroke="none" fill="#eef5f7" fill-rule="evenodd"/><path d="M 252.089 9.135 C 250.940 10.368, 250 11.885, 250 12.506 C 250 14.872, 244.031 25.157, 239.366 30.830 C 236.690 34.084, 232.597 38.041, 230.272 39.623 C 227.947 41.205, 226.034 42.828, 226.022 43.230 C 226.010 43.631, 224.088 44.929, 221.750 46.114 C 219.412 47.299, 217.275 48.591, 217 48.985 C 216.168 50.176, 212.876 51.625, 205 54.267 C 197.855 56.664, 194.296 57.550, 182.174 59.947 C 174.950 61.375, 154.323 61.331, 153.429 59.885 C 153.006 59.201, 150.862 58.951, 147.881 59.237 C 144.971 59.517, 142.317 59.221, 141.261 58.498 C 140.293 57.835, 137.700 57.023, 135.500 56.694 C 133.300 56.365, 128.350 55.354, 124.500 54.448 C 120.650 53.543, 115.475 52.375, 113 51.855 C 110.525 51.334, 106.250 50.417, 103.500 49.817 C 100.750 49.217, 89.717 48.545, 78.981 48.324 L 59.463 47.923 52.305 50.874 C 20.154 64.132, 4 86.490, 4 117.729 C 4 133.327, 6.100 139.287, 19.722 162.359 C 23.340 168.486, 28.003 175.975, 30.083 179 C 37.289 189.478, 39.682 202.096, 36.633 213.543 C 35.343 218.387, 32.204 225.957, 31.052 227 C 30.748 227.275, 29.766 228.809, 28.869 230.408 C 26.191 235.182, 20.937 241.304, 16.774 244.500 C 14.625 246.150, 12.055 248.229, 11.063 249.121 C 10.071 250.012, 7.386 251.568, 5.096 252.578 C 2.594 253.682, 1.046 254.989, 1.217 255.854 C 1.372 256.646, 3.975 258.557, 7 260.100 C 16.359 264.875, 27.196 276.366, 31.899 286.500 C 33.175 289.250, 34.620 292.281, 35.109 293.236 C 35.599 294.191, 36 296.077, 36 297.427 C 36 298.777, 36.450 300.160, 37 300.500 C 38.458 301.401, 38.201 312.657, 36.583 318.733 C 35.018 324.611, 33.868 326.745, 21.615 346.500 C 6.490 370.887, 4.031 377.490, 4.012 393.768 C 3.969 430.713, 28.804 458.072, 67.692 463.919 C 84.173 466.397, 97.547 464.636, 129 455.846 C 143.889 451.685, 154.064 450.039, 165 450.022 C 192.893 449.980, 220.322 460.137, 235.626 476.176 C 240.460 481.242, 247 490.651, 247 492.541 C 247 493.265, 247.563 494.468, 248.250 495.214 C 248.938 495.961, 250.190 497.905, 251.033 499.536 C 251.903 501.217, 253.536 502.640, 254.806 502.822 C 256.674 503.092, 257.484 502.181, 259.699 497.322 C 262.788 490.545, 269.011 480.940, 273.417 476.146 C 276.609 472.673, 288.874 463.924, 295 460.749 C 307.269 454.391, 327.024 450, 343.358 450 C 358.397 450, 364.975 451.311, 397.500 460.791 C 406.004 463.269, 407.741 463.416, 429 463.457 C 451.183 463.499, 451.595 463.462, 458.263 460.790 C 480.050 452.059, 497.694 432.368, 503.324 410.500 C 504.714 405.099, 504.673 381.458, 503.264 376.576 C 501.512 370.502, 495.837 359.654, 487.532 346.500 C 483.365 339.900, 479.405 333.262, 478.734 331.750 C 478.062 330.238, 477.172 329, 476.756 329 C 476.340 329, 476 328.100, 476 327 C 476 325.900, 475.640 325, 475.200 325 C 474.058 325, 472 314.295, 472 308.357 C 472 300.408, 474.054 292.035, 477.730 285 C 481.399 277.977, 493.463 264.876, 498.500 262.443 C 503.743 259.911, 507.181 256.636, 506.490 254.834 C 506.140 253.923, 502.923 251.464, 499.341 249.369 C 482.715 239.646, 471.946 221.446, 472.024 203.201 C 472.060 194.853, 475.123 183, 477.244 183 C 477.660 183, 478.001 182.438, 478.002 181.750 C 478.002 181.063, 481.377 175.100, 485.500 168.500 C 494.596 153.939, 500.041 143.563, 502.939 135.272 C 504.835 129.843, 505.062 127.467, 504.706 116.772 C 504.208 101.871, 503.888 100.295, 499.240 89.915 C 493.826 77.826, 483.485 65.910, 472 58.528 C 457.243 49.042, 451.444 47.721, 427 48.280 C 409.681 48.676, 405.647 49.147, 395.500 51.957 C 393.300 52.566, 390.375 53.298, 389 53.583 C 387.625 53.869, 383.800 54.797, 380.500 55.645 C 377.200 56.493, 373.170 57.156, 371.544 57.118 C 369.918 57.080, 368.246 57.600, 367.827 58.274 C 367.341 59.057, 364.885 59.437, 361.033 59.326 C 357.715 59.230, 355 59.568, 355 60.076 C 355 61.354, 337.417 61.236, 327.052 59.888 C 314.045 58.198, 297.723 52.615, 289.500 47.045 C 287.850 45.928, 285.890 45.010, 285.144 45.007 C 284.397 45.003, 279.897 41.062, 275.144 36.250 C 268.098 29.118, 265.565 25.663, 261.447 17.566 C 258.668 12.102, 255.895 7.465, 255.286 7.262 C 254.676 7.059, 253.238 7.902, 252.089 9.135 M 97.981 163.002 C 79.661 164.761, 68.517 171.339, 63.495 183.358 C 60.802 189.804, 59.950 196.784, 59.022 220 C 57.831 249.816, 56.135 255.488, 47.535 258.433 C 45.354 259.179, 43.404 260.287, 43.202 260.895 C 42.999 261.502, 44.867 262.871, 47.352 263.937 C 56.230 267.742, 57.846 273.266, 59.043 303.893 C 59.978 327.796, 61.122 335.398, 64.899 342.801 C 67.482 347.864, 72.455 352.646, 78.184 355.573 C 85.740 359.434, 110 362.810, 110 360 C 110 359.450, 110.112 358.703, 110.250 358.340 C 110.388 357.977, 108.748 357.189, 106.606 356.588 C 98.816 354.402, 97.215 348.896, 96.402 321.500 C 95.800 301.190, 94.977 296.083, 90.916 287.426 C 85.713 276.336, 76.415 269.391, 59.419 263.900 C 55.795 262.729, 53.205 261.428, 53.664 261.009 C 54.124 260.590, 57.650 259.229, 61.500 257.985 C 72.013 254.586, 77.783 251.348, 83.478 245.649 C 89.029 240.094, 93.118 232.460, 94.807 224.500 C 95.390 221.750, 96.110 211.625, 96.406 202 C 97.003 182.608, 98.128 174.705, 100.810 171.077 C 102.662 168.571, 103.532 167.995, 108.352 166.082 C 110.715 165.144, 110.994 164.697, 109.979 163.475 C 109.306 162.664, 108.023 162.063, 107.128 162.140 C 106.232 162.217, 102.117 162.605, 97.981 163.002 M 399.022 163.473 C 397.966 164.745, 398.471 165.273, 402.323 166.924 C 404.825 167.996, 407.547 169.915, 408.373 171.187 C 410.625 174.656, 411.836 184.544, 412.392 204 C 413.087 228.333, 416.264 237.682, 427.196 247.558 C 431.696 251.624, 442.871 257.183, 450.304 259.055 C 452.906 259.710, 455.267 260.623, 455.552 261.085 C 455.838 261.546, 453.467 262.672, 450.285 263.586 C 433.682 268.359, 422.995 276.474, 417.478 288.500 C 413.216 297.792, 413.025 299.041, 412.056 324 C 411.126 347.971, 410.009 352.910, 404.926 355.538 C 403.371 356.342, 401.402 357, 400.550 357 C 399.667 357, 399 357.860, 399 359 C 399 361.398, 402.505 361.605, 414.594 359.924 C 439.393 356.474, 448.835 344.280, 448.987 315.500 C 449.069 299.976, 450.721 280.471, 452.460 274.488 C 454.122 268.771, 456.764 265.832, 462.333 263.505 C 466.447 261.786, 466.764 259.707, 462.995 259.157 C 456.803 258.254, 452.764 252.412, 451.042 241.871 C 450.470 238.367, 449.729 226.725, 449.396 216 C 448.420 184.519, 444.573 174.680, 430.673 168.112 C 420.845 163.468, 401.392 160.617, 399.022 163.473 M 180.393 176.496 C 149.913 183.412, 129.455 203.011, 122.474 231.983 C 120.119 241.756, 120.092 262.546, 122.422 272.500 C 128.668 299.187, 143.811 315.094, 169.743 322.206 C 176.012 323.925, 180.474 324.349, 193 324.416 C 210.336 324.510, 213.614 323.775, 231.232 315.842 C 242.902 310.587, 247.148 309.945, 249.359 313.102 C 250.256 314.383, 251.268 316.909, 251.606 318.716 C 252.034 320.995, 252.778 322, 254.037 322 C 255.733 322, 255.872 320.332, 256.175 296.203 C 256.461 273.538, 256.715 270.079, 258.273 267.703 C 259.248 266.216, 260.656 265, 261.401 265 C 263.318 265, 265.372 262.348, 264.075 261.546 C 262.818 260.769, 194.965 260.702, 194.190 261.477 C 192.996 262.671, 196.117 264.317, 201.050 265.097 C 207.341 266.091, 210.420 267.991, 212.657 272.259 C 214.074 274.961, 214.368 278.657, 214.428 294.500 C 214.508 315.610, 214.126 317.214, 208.452 319.585 C 203.780 321.537, 195.308 321.324, 190.500 319.134 C 184.966 316.614, 179.320 310.004, 175.521 301.597 C 169.878 289.110, 168 276.954, 168 252.924 C 168 232.963, 169.784 219.999, 174.127 208.390 C 176.962 200.813, 183.669 191.175, 188.816 187.282 C 202.362 177.038, 223.324 179.821, 235.851 193.527 C 241.637 199.858, 244.334 206.237, 246.517 218.759 C 248.215 228.496, 249.379 230.524, 251.567 227.559 C 252.716 226.002, 253 220.905, 253 201.809 C 253 178.743, 252.938 178, 251.019 178 C 249.670 178, 248.847 178.878, 248.438 180.750 C 247.368 185.650, 245.850 188.843, 244.310 189.435 C 243.437 189.770, 239.672 187.919, 235.357 185.033 C 224.239 177.597, 217.427 175.711, 200.500 175.382 C 191.239 175.203, 184.433 175.580, 180.393 176.496 M 273.675 178.658 C 272.547 179.786, 275.131 182, 277.575 182 C 278.857 182, 280.964 182.482, 282.257 183.071 C 287.615 185.513, 287.478 183.905, 287.787 247.754 C 287.981 287.726, 287.725 308.306, 287.001 310.997 C 285.849 315.275, 282.219 318, 277.672 318 C 275.150 318, 272.527 320.194, 273.675 321.342 C 274.595 322.262, 390.812 322.171, 391.191 321.250 C 391.361 320.837, 391.275 308.575, 391 294 C 390.524 268.763, 390.409 267.500, 388.591 267.500 C 387.105 267.500, 386.294 268.878, 384.928 273.720 C 379.832 291.793, 366.625 310.006, 354.533 315.637 C 347.675 318.830, 336.514 318.978, 332.635 315.927 L 330 313.855 330 251.878 C 330 183.611, 329.850 185.294, 336.119 183.108 C 337.868 182.499, 340.533 182, 342.042 182 C 344.619 182, 346.588 179.921, 345.264 178.598 C 344.445 177.778, 274.497 177.837, 273.675 178.658 M 189 366.724 L 184.500 367.088 184.500 388.794 L 184.500 410.500 181.750 410.816 C 177.844 411.266, 176.727 407.695, 177.204 396.283 C 177.539 388.279, 177.899 386.736, 179.945 384.559 C 182.071 382.296, 182.132 381.988, 180.575 381.390 C 177.874 380.354, 171.317 382.781, 169.057 385.655 C 163.805 392.332, 163.944 404.804, 169.335 410.643 C 173.275 414.909, 179.015 416.202, 182.004 413.497 C 183.553 412.095, 184.263 411.974, 185.400 412.917 C 186.231 413.607, 189.031 413.981, 192.034 413.805 L 197.231 413.500 197.064 391.587 C 196.911 371.639, 196.242 365.669, 194.215 366.180 C 193.822 366.279, 191.475 366.524, 189 366.724 M 354 366.734 L 349.500 367.089 349.500 390.545 L 349.500 414 355.691 414 C 361.529 414, 364.288 412.914, 362.016 411.510 C 360.687 410.688, 360.684 399, 362.014 399 C 363.076 399, 367.528 408.059, 368.156 411.500 C 368.471 413.229, 369.433 413.540, 375.260 413.796 C 379.611 413.987, 382 413.708, 382 413.009 C 382 412.413, 379.750 407.727, 377 402.596 C 374.250 397.464, 372 392.565, 372 391.710 C 372 390.855, 373.817 388.600, 376.038 386.699 C 380.540 382.846, 379.988 382, 372.977 382 C 369.132 382, 367.052 383.296, 368.984 384.490 C 371.009 385.741, 369.929 389.677, 366.702 392.804 C 364.889 394.562, 362.876 396, 362.229 396 C 361.394 396, 360.973 391.748, 360.777 381.332 C 360.611 372.528, 360.100 366.607, 359.500 366.522 C 358.950 366.444, 356.475 366.539, 354 366.734 M 109.352 382.092 C 102.260 384.147, 98.014 392.939, 99.459 402.576 C 101.248 414.504, 115.324 419.090, 123.070 410.268 C 125.138 407.912, 125.851 406.450, 125.059 406.186 C 124.380 405.960, 123.324 406.276, 122.713 406.887 C 120.763 408.837, 115.514 408.176, 113.174 405.686 C 111.367 403.761, 111 402.183, 111 396.325 C 111 390.458, 111.418 388.662, 113.500 385.595 C 114.875 383.569, 116 381.706, 116 381.456 C 116 380.770, 112.889 381.068, 109.352 382.092 M 137.954 383.254 C 131.921 386.296, 129.647 391.113, 130.193 399.692 C 130.660 407.024, 132.785 410.583, 138.343 413.346 C 143.587 415.952, 145.384 415.077, 143.312 410.924 C 141.329 406.949, 141.129 390.518, 143.008 385.981 C 144.883 381.453, 143.261 380.578, 137.954 383.254 M 147.467 382.053 C 147.159 382.551, 147.489 383.980, 148.201 385.229 C 149.991 388.372, 149.964 408.673, 148.166 411.836 C 147.436 413.120, 147.071 414.405, 147.356 414.690 C 148.477 415.810, 156.486 412.229, 158.304 409.795 C 162.818 403.749, 162.225 390.767, 157.205 385.745 C 154.228 382.766, 148.394 380.554, 147.467 382.053 M 219.515 381.976 C 219.224 382.447, 219.439 384.024, 219.993 385.481 C 220.547 386.938, 221 389.702, 221 391.623 C 221 395.113, 221.003 395.115, 225.250 394.807 C 229.391 394.508, 229.493 394.415, 229.239 391.198 C 229.096 389.382, 228.279 386.829, 227.423 385.523 C 225.753 382.973, 220.386 380.566, 219.515 381.976 M 292.500 382.255 C 285.726 384.526, 282.999 389.249, 283.004 398.700 C 283.009 407.457, 285.082 411.102, 291.438 413.529 C 293.971 414.497, 296.264 415.069, 296.533 414.800 C 296.802 414.532, 296.342 412.385, 295.511 410.030 C 293.615 404.657, 293.613 391.833, 295.507 386.513 C 297.186 381.798, 296.550 380.898, 292.500 382.255 M 336.785 382.250 C 334.488 384.047, 333.659 389.151, 335.299 391.394 C 336.851 393.517, 341.276 393.845, 343.497 392.003 C 345.839 390.059, 345.408 384.399, 342.777 382.557 C 340.088 380.673, 338.879 380.611, 336.785 382.250 M 391.402 382.905 C 387.021 384.895, 386 386.445, 386 391.107 C 386 393.321, 387.486 395.648, 392 400.500 C 397.990 406.938, 399.310 410.290, 396.833 412.767 C 395.943 413.657, 396.063 414.087, 397.335 414.575 C 402.185 416.436, 410 410.431, 410 404.843 C 410 402.054, 408.967 400.567, 403.449 395.417 C 396.984 389.382, 396.150 387.668, 397.530 383.250 C 398.406 380.446, 396.993 380.366, 391.402 382.905 M 116.496 386.010 C 114.015 391.511, 115.483 395, 120.279 395 C 124.454 395, 126 393.479, 126 389.373 C 126 387.077, 125.239 385.547, 123.365 384.073 C 119.643 381.145, 118.550 381.453, 116.496 386.010 M 209.420 383.886 C 205.226 386.443, 203 391.564, 203.002 398.651 C 203.004 409.553, 208.662 415.603, 217.966 414.653 C 221.554 414.287, 223.113 413.453, 225.901 410.410 C 228.173 407.932, 228.932 406.477, 228.098 406.199 C 227.398 405.966, 226.324 406.276, 225.713 406.887 C 223.099 409.501, 217.521 407.908, 215.483 403.966 C 213.839 400.788, 214.064 389.269, 215.859 384.750 C 216.853 382.246, 216.751 382, 214.725 382.004 C 213.501 382.006, 211.114 382.853, 209.420 383.886 M 233.356 383.229 C 233.109 383.630, 233.328 384.755, 233.841 385.729 C 234.355 386.703, 236.707 393.125, 239.068 400 C 241.428 406.875, 243.842 412.831, 244.430 413.235 C 247.085 415.058, 249.849 413.988, 250.851 410.750 C 252.990 403.839, 253.232 400.894, 251.758 399.680 C 250.141 398.347, 247 388.968, 247 385.470 C 247 383.337, 246.523 383.146, 240.402 382.835 C 236.773 382.651, 233.602 382.828, 233.356 383.229 M 257.831 383.250 C 256.979 383.938, 255.691 386.700, 254.971 389.390 C 253.816 393.705, 253.851 394.418, 255.272 395.457 C 256.158 396.105, 258.188 400.429, 259.783 405.067 C 262.522 413.030, 262.856 413.517, 265.785 413.809 C 268.736 414.103, 268.963 413.863, 270.441 408.885 C 271.759 404.448, 271.787 403.413, 270.627 402.076 C 269.875 401.209, 268.009 396.675, 266.481 392 C 263.180 381.902, 261.550 380.253, 257.831 383.250 M 274.339 382.787 C 271.245 383.106, 271.208 383.171, 272.583 385.807 C 273.355 387.288, 274.026 390.075, 274.073 392 C 274.120 393.925, 274.403 394.825, 274.702 394 C 275.001 393.175, 276.279 390.397, 277.543 387.826 C 280.038 382.751, 279.709 382.233, 274.339 382.787 M 300 383.169 C 300 383.956, 300.507 385.107, 301.127 385.727 C 302.740 387.340, 302.664 406.983, 301.030 410.929 C 300.315 412.653, 299.986 414.320, 300.298 414.632 C 301.413 415.746, 307.718 412.904, 310.444 410.059 C 315.574 404.704, 315.093 390.255, 309.614 385.107 C 306.727 382.395, 300 381.038, 300 383.169 M 319.748 382.585 C 319.427 382.907, 319.605 384.438, 320.146 385.988 C 321.094 388.708, 320.967 408.939, 319.982 412 C 319.597 413.197, 320.689 413.561, 325.388 413.804 C 332.634 414.178, 334.714 413.566, 333.042 411.550 C 332.237 410.581, 331.931 405.993, 332.085 397.219 C 332.210 390.121, 331.990 383.793, 331.597 383.157 C 330.874 381.987, 320.831 381.502, 319.748 382.585 M 405.750 382.771 C 403.597 383.233, 403.612 383.617, 405.954 388 L 407.824 391.500 408.537 388.686 C 409.425 385.175, 408.060 382.276, 405.750 382.771 M 386.044 408.250 C 386.012 411.740, 386.382 413, 387.441 413 C 389.941 413, 390.145 411.185, 388.084 407.281 L 386.088 403.500 386.044 408.250" stroke="none" fill="#06759d" fill-rule="evenodd"/></svg>